<svg xmlns="http://www.w3.org/2000/svg" xmlns:xlink="http://www.w3.org/1999/xlink" xmlns:s="https://github.com/nturley/netlistsvg" width="121.04000000000002" height="241">
  <style>svg {
    stroke: #000;
    fill: none;
  }
  text {
    fill: #000;
    stroke: none;
    font-size: 10px;
    font-weight: bold;
    font-family: "Courier New", monospace;
  }
  .nodelabel {
    text-anchor: middle;
  }
  .inputPortLabel {
    text-anchor: end;
  }
  .splitjoinBody {
    fill: #000;
  }
  .symbol {
    stroke-linejoin: round;
    stroke-linecap: round;
    stroke-width: 2;
  }
  .detail {
    stroke-linejoin: round;
    stroke-linecap: round;
    fill: #000;
  }</style>
  <g s:type="resistor_v" s:width="10" s:height="50" transform="translate(39.04000000000002,57)" id="cell_R1">
    <s:alias val="r_v"/>
    <text x="15" y="15" s:attribute="ref" class="cell_R1">R1</text>
    <text x="15" y="30" s:attribute="value" class="cell_R1">R</text>
    <path d="M0,10 V40 H10 V10 Z" class="symbol cell_R1"/>
    <path d="M5,0 V10 M5,40 V50" class="connect cell_R1"/>
    <g s:x="5" s:y="0" s:pid="A" s:position="top"/>
    <g s:x="5" s:y="50" s:pid="B" s:position="bottom"/>
  </g>
  <g s:type="transistor_npn" s:width="32" s:height="32" transform="translate(22.04000000000002,147)" id="cell_Q1">
    <s:alias val="q_npn"/>
    <text x="35" y="20" s:attribute="ref" class="cell_Q1">Q1</text>
    <circle r="16" cx="16" cy="16" class="symbol cell_Q1"/>
    <path d="M0,16 H12 M12,6 V26" class="detail cell_Q1"/>
    <path d="m12,10 11,-8" class="detail cell_Q1"/>
    <path d="m12,21 11,8" class="detail cell_Q1"/>
    <path d="m23,29 -6,-1 3,-5 z" style="fill:#000000" class="cell_Q1"/>
    <g s:x="22" s:y="2" s:pid="C" s:position="top"/>
    <g s:x="0" s:y="16" s:pid="B" s:position="left"/>
    <g s:x="23" s:y="29" s:pid="E" s:position="bottom"/>
  </g>
  <g s:type="transistor_npn" s:width="32" s:height="32" transform="translate(76.04000000000002,111)" id="cell_Q2">
    <s:alias val="q_npn"/>
    <text x="35" y="20" s:attribute="ref" class="cell_Q2">Q2</text>
    <circle r="16" cx="16" cy="16" class="symbol cell_Q2"/>
    <path d="M0,16 H12 M12,6 V26" class="detail cell_Q2"/>
    <path d="m12,10 11,-8" class="detail cell_Q2"/>
    <path d="m12,21 11,8" class="detail cell_Q2"/>
    <path d="m23,29 -6,-1 3,-5 z" style="fill:#000000" class="cell_Q2"/>
    <g s:x="22" s:y="2" s:pid="C" s:position="top"/>
    <g s:x="0" s:y="16" s:pid="B" s:position="left"/>
    <g s:x="23" s:y="29" s:pid="E" s:position="bottom"/>
  </g>
  <g s:type="vcc" s:width="20" s:height="30" transform="translate(34.04000000000002,22)" id="cell_vcc0">
    <s:alias val="vcc"/>
    <text x="10" y="-4" class="nodelabel cell_vcc0" s:attribute="name">VCC</text>
    <path d="M0,0 H20 L10,15 Z M10,15 V30" class="cell_vcc0"/>
    <g s:x="10" s:y="30" s:pid="A" s:position="bottom"/>
  </g>
  <g s:type="vcc" s:width="20" s:height="30" transform="translate(88.04000000000002,76)" id="cell_vcc1">
    <s:alias val="vcc"/>
    <text x="10" y="-4" class="nodelabel cell_vcc1" s:attribute="name">VCC</text>
    <path d="M0,0 H20 L10,15 Z M10,15 V30" class="cell_vcc1"/>
    <g s:x="10" s:y="30" s:pid="A" s:position="bottom"/>
  </g>
  <g s:type="gnd" s:width="20" s:height="30" transform="translate(35.04000000000002,199)" id="cell_gnd0">
    <s:alias val="gnd"/>
    <text x="30" y="20" class="nodelabel cell_gnd0" s:attribute="name">GND</text>
    <path d="M0,0 H20 M3,5 H17 M7,10 H13 M10,0 V-15" class="cell_gnd0"/>
    <g s:x="10" s:y="-15" s:pid="A" s:position="top"/>
  </g>
  <g s:type="gnd" s:width="20" s:height="30" transform="translate(89.04000000000002,163)" id="cell_gnd1">
    <s:alias val="gnd"/>
    <text x="30" y="20" class="nodelabel cell_gnd1" s:attribute="name">GND</text>
    <path d="M0,0 H20 M3,5 H17 M7,10 H13 M10,0 V-15" class="cell_gnd1"/>
    <g s:x="10" s:y="-15" s:pid="A" s:position="top"/>
  </g>
  <line x1="44.04000000000002" x2="44.04000000000002" y1="52" y2="57" class="net_1"/>
  <line x1="44.04000000000002" x2="44.04000000000002" y1="107" y2="117" class="net_2"/>
  <line x1="44.04000000000002" x2="12.04000000000002" y1="117" y2="117" class="net_2"/>
  <line x1="12.04000000000002" x2="12.04000000000002" y1="117" y2="163" class="net_2"/>
  <circle cx="44.04000000000002" cy="117" r="2" style="fill:#000" class="net_2"/>
  <line x1="12.04000000000002" x2="22.04000000000002" y1="163" y2="163" class="net_2"/>
  <line x1="44.04000000000002" x2="44.04000000000002" y1="107" y2="127" class="net_2"/>
  <circle cx="44.04000000000002" cy="127" r="2" style="fill:#000" class="net_2"/>
  <line x1="44.04000000000002" x2="76.04000000000002" y1="127" y2="127" class="net_2"/>
  <line x1="22.04000000000002" x2="12.04000000000002" y1="163" y2="163" class="net_2"/>
  <line x1="12.04000000000002" x2="12.04000000000002" y1="163" y2="137" class="net_2"/>
  <line x1="12.04000000000002" x2="44.04000000000002" y1="137" y2="137" class="net_2"/>
  <circle cx="44.04000000000002" cy="137" r="2" style="fill:#000" class="net_2"/>
  <circle cx="12.04000000000002" cy="137" r="2" style="fill:#000" class="net_2"/>
  <line x1="44.04000000000002" x2="44.04000000000002" y1="137" y2="149" class="net_2"/>
  <line x1="76.04000000000002" x2="44.04000000000002" y1="127" y2="127" class="net_2"/>
  <circle cx="44.04000000000002" cy="127" r="2" style="fill:#000" class="net_2"/>
  <line x1="44.04000000000002" x2="44.04000000000002" y1="127" y2="149" class="net_2"/>
  <line x1="98.04000000000002" x2="98.04000000000002" y1="106" y2="113" class="net_4"/>
  <line x1="45.04000000000002" x2="45.04000000000002" y1="176" y2="184" class="net_3"/>
  <line x1="99.04000000000002" x2="99.04000000000002" y1="140" y2="148" class="net_5"/>
</svg>
